<?xml version="1.0" encoding="utf-8"?>
<!-- Generator: Adobe Illustrator 25.0.1, SVG Export Plug-In . SVG Version: 6.00 Build 0)  -->
<svg version="1.1" id="Capa_1" xmlns="http://www.w3.org/2000/svg" xmlns:xlink="http://www.w3.org/1999/xlink" x="0px" y="0px"
	 viewBox="0 0 64 64" style="enable-background:new 0 0 64 64;" xml:space="preserve">
<style type="text/css">
	.st0{fill:#8CC186;}
	.st1{fill:#FFFFFF;}
</style>
<g>
	<path class="st0" d="M63.5,32C63.5,14.6,49.4,0.5,32,0.5C14.6,0.5,0.5,14.6,0.5,32c0,15.72,11.52,28.75,26.58,31.12V41.11h-8V32h8
		v-6.94c0-7.89,4.7-12.26,11.9-12.26c3.45,0,7.05,0.62,7.05,0.62v7.75h-3.97c-3.91,0-5.13,2.43-5.13,4.92V32h8.74l-1.4,9.11h-7.34
		v22.01C51.98,60.75,63.5,47.72,63.5,32z"/>
	<path class="st1" d="M44.26,41.11l1.4-9.11h-8.74v-5.91c0-2.49,1.22-4.92,5.13-4.92h3.97v-7.75c0,0-3.6-0.62-7.05-0.62
		c-7.2,0-11.9,4.36-11.9,12.26V32h-8v9.11h8v22.01c1.6,0.25,3.25,0.38,4.92,0.38c1.67,0,3.32-0.13,4.92-0.38V41.11H44.26z"/>
</g>
</svg>
