<?xml version="1.0" encoding="utf-8"?>
<!-- Generator: Adobe Illustrator 25.0.1, SVG Export Plug-In . SVG Version: 6.00 Build 0)  -->
<svg version="1.1" id="Capa_1" xmlns="http://www.w3.org/2000/svg" xmlns:xlink="http://www.w3.org/1999/xlink" x="0px" y="0px"
	 viewBox="0 0 64 64" style="enable-background:new 0 0 64 64;" xml:space="preserve">
<style type="text/css">
	.st0{fill:#8CC186;}
	.st1{fill:#FFFFFF;}
</style>
<g>
	<circle class="st0" cx="32" cy="32" r="31.5"/>
	<path class="st1" d="M18.79,26.13h6.1v19.6h-6.1V26.13z M21.84,16.39c1.95,0,3.53,1.58,3.53,3.53c0,1.95-1.58,3.53-3.53,3.53
		c-1.96,0-3.54-1.59-3.54-3.53C18.3,17.98,19.89,16.39,21.84,16.39"/>
	<path class="st1" d="M28.71,26.13h5.84v2.68h0.08c0.81-1.54,2.8-3.17,5.77-3.17c6.17,0,7.3,4.06,7.3,9.33v10.75h-6.09V36.2
		c0-2.27-0.04-5.2-3.17-5.2c-3.17,0-3.65,2.48-3.65,5.03v9.69h-6.09V26.13z"/>
</g>
</svg>
