<?xml version="1.0" encoding="utf-8"?>
<!-- Generator: Adobe Illustrator 25.0.1, SVG Export Plug-In . SVG Version: 6.00 Build 0)  -->
<svg version="1.1" id="Capa_1" xmlns="http://www.w3.org/2000/svg" xmlns:xlink="http://www.w3.org/1999/xlink" x="0px" y="0px"
	 viewBox="0 0 64 64" style="enable-background:new 0 0 64 64;" xml:space="preserve">
<style type="text/css">
	.st0{fill:#8CC186;}
	.st1{fill:#FFFFFF;}
</style>
<g>
	<circle class="st0" cx="32" cy="32" r="31.5"/>
	<g>
		<g>
			<path class="st1" d="M41.78,20.08c-1.2,0-2.17,0.97-2.17,2.17c0,1.2,0.97,2.17,2.17,2.17c1.2,0,2.17-0.97,2.17-2.17
				C43.94,21.05,42.97,20.08,41.78,20.08z"/>
			<path class="st1" d="M32.15,22.86c-5.02,0-9.1,4.08-9.1,9.1c0,5.02,4.08,9.1,9.1,9.1c5.02,0,9.1-4.08,9.1-9.1
				C41.25,26.94,37.17,22.86,32.15,22.86z M32.15,37.78c-3.21,0-5.83-2.61-5.83-5.83s2.61-5.83,5.83-5.83
				c3.21,0,5.83,2.61,5.83,5.83S35.36,37.78,32.15,37.78z"/>
			<path class="st1" d="M39.37,50.42H24.63c-6.12,0-11.09-4.98-11.09-11.09V24.58c0-6.12,4.98-11.09,11.09-11.09h14.75
				c6.12,0,11.09,4.98,11.09,11.09v14.75C50.47,45.45,45.49,50.42,39.37,50.42z M24.63,16.96c-4.2,0-7.62,3.42-7.62,7.62v14.75
				c0,4.2,3.42,7.62,7.62,7.62h14.75c4.2,0,7.62-3.42,7.62-7.62V24.58c0-4.2-3.42-7.62-7.62-7.62H24.63z"/>
		</g>
	</g>
</g>
</svg>
