<?xml version="1.0" encoding="utf-8"?>
<!-- Generator: Adobe Illustrator 25.0.1, SVG Export Plug-In . SVG Version: 6.00 Build 0)  -->
<svg version="1.1" id="Capa_1" xmlns="http://www.w3.org/2000/svg" xmlns:xlink="http://www.w3.org/1999/xlink" x="0px" y="0px"
	 viewBox="0 0 64 64" style="enable-background:new 0 0 64 64;" xml:space="preserve">
<style type="text/css">
	.st0{fill:#8CC186;}
</style>
<g>
	<path class="st0" d="M33.42,63.53C14.52,63.63,0.24,49.25,0.5,31.55C0.76,14.15,14.84,0.49,31.92,0.47
		c17.69-0.02,31.81,14.3,31.57,32.02c-0.12,8.83-3.49,16.4-9.93,22.48C47.59,60.61,40.41,63.4,33.42,63.53z M31.19,47.94
		c8.52-0.03,10.52-0.06,16.13-0.57c2.31-0.21,4.24-1.95,4.73-4.21c0.48-2.22,0.65-4.47,0.69-6.74c0.04-2.21,0.01-4.41-0.03-6.62
		c-0.03-1.95-0.21-3.88-0.58-5.79c-0.47-2.48-2.27-4.29-4.63-4.53c-1.67-0.18-3.35-0.33-5.03-0.39c-2.6-0.1-5.2-0.18-7.8-0.17
		c-4.28,0.01-8.56,0.06-12.83,0.17c-1.82,0.04-3.64,0.22-5.45,0.42c-1.6,0.18-2.82,1.03-3.7,2.38c-0.59,0.9-0.8,1.91-0.97,2.93
		c-0.37,2.15-0.47,4.33-0.48,6.51c-0.01,2.2,0.05,4.4,0.08,6.6c0.03,1.76,0.24,3.5,0.61,5.22c0.48,2.26,2.33,4,4.61,4.2
		c2.26,0.21,4.53,0.37,6.8,0.46C25.96,47.91,28.58,47.9,31.19,47.94z"/>
	<path class="st0" d="M39.57,33.44c-3.98,2.56-7.9,5.09-11.86,7.64c0-5.1,0-10.14,0-15.28C31.67,28.36,35.59,30.88,39.57,33.44z"/>
</g>
</svg>
