<svg id="SvgjsSvg1001" width="288" height="288" xmlns="http://www.w3.org/2000/svg" version="1.1" xmlns:xlink="http://www.w3.org/1999/xlink" xmlns:svgjs="http://svgjs.com/svgjs"><defs id="SvgjsDefs1002"></defs><g id="SvgjsG1008"><svg xmlns="http://www.w3.org/2000/svg" enable-background="new 0 0 110.49 48" viewBox="0 0 110.49 48" width="288" height="288"><path fill="#ffffff" d="M49.09 18.45c1.06 0 1.84-.39 2.35-1.15v.83c0 .08.07.15.15.15h.4c.09 0 .15-.07.15-.15V8.95c0-.09-.06-.16-.15-.16h-.4c-.08 0-.15.07-.15.16v3.35c-.49-.73-1.28-1.1-2.35-1.1-1.02 0-1.81.37-2.36 1.11-.47.64-.72 1.48-.72 2.52 0 1.04.24 1.9.72 2.53C47.27 18.08 48.07 18.45 49.09 18.45zM49.09 11.87c.8 0 1.39.29 1.8.89.36.52.55 1.22.55 2.07 0 .86-.19 1.56-.55 2.07-.41.6-1 .89-1.8.89-.8 0-1.4-.29-1.81-.89-.37-.51-.55-1.21-.55-2.07 0-.86.19-1.55.56-2.07C47.7 12.16 48.29 11.87 49.09 11.87zM53.4 18.28h.39c.09 0 .16-.07.16-.15v-6.63c0-.09-.07-.16-.16-.16H53.4c-.09 0-.16.07-.16.16v6.63C53.24 18.21 53.31 18.28 53.4 18.28zM55.64 17.89c.48.37 1.09.56 1.83.56.65 0 1.22-.16 1.7-.48.54-.38.82-.9.82-1.54 0-.6-.25-1.08-.75-1.41-.29-.2-.78-.38-1.51-.57 0 0-.01 0-.02 0-.03 0-.04-.01-.05-.01-.02-.01-.04-.02-.05-.02-1.27-.32-1.92-.78-1.92-1.36 0-.39.17-.68.52-.9.31-.19.68-.28 1.12-.28 1.04 0 1.61.46 1.74 1.41.01.08.08.14.15.14h.4c.04 0 .09-.02.12-.05.02-.03.04-.08.04-.12-.07-.64-.33-1.16-.77-1.52-.42-.34-.97-.52-1.62-.52-.62 0-1.17.14-1.62.43-.54.34-.81.84-.81 1.47 0 .54.2.96.6 1.27.34.26 1.04.53 2.16.82.08.01.15.03.2.05.06.02.09.03.13.04.81.22 1.2.59 1.2 1.13 0 .46-.18.79-.56 1.03-.33.21-.74.32-1.24.32-1.12 0-1.77-.53-1.97-1.63C55.48 16.06 55.42 16 55.34 16h-.39c-.05 0-.09.02-.11.05-.03.03-.05.07-.04.12C54.85 16.91 55.14 17.49 55.64 17.89zM63.4 18.45c.69 0 1.3-.2 1.81-.6.39-.31.67-.7.85-1.18.03-.07 0-.15-.07-.19l-.33-.18c-.04-.02-.09-.02-.13-.01-.04.02-.08.05-.09.09-.36.94-1.03 1.4-2.04 1.4-.73 0-1.28-.29-1.69-.88-.36-.5-.54-1.14-.55-1.9h5.01c.09 0 .16-.07.16-.16v-.24c0-.99-.24-1.8-.69-2.39-.51-.67-1.27-1.02-2.24-1.02-1 0-1.77.38-2.29 1.14-.45.64-.67 1.47-.67 2.49 0 1.01.23 1.86.67 2.51C61.63 18.07 62.4 18.45 63.4 18.45zM61.19 14.33c.07-.68.27-1.25.6-1.69.41-.52.96-.77 1.68-.77.69 0 1.22.26 1.6.79.31.44.49 1 .51 1.67H61.19zM68.13 10.34c.03.03.09.05.13.04.05-.01.09-.04.12-.08.28-.55.47-.65.57-.67.03.01.16.08.53.41.39.33.66.48.86.48h0c.28-.01.5-.12.67-.33.02-.03.05-.07.14-.23.05-.11.14-.26.25-.46.03-.05.03-.12 0-.17l-.2-.27C71.15 9.02 71.1 9 71.04 9c-.06 0-.1.04-.13.09-.04.09-.08.17-.11.25-.03.07-.07.15-.1.24-.13.23-.28.26-.37.26-.01 0-.14-.02-.58-.4-.47-.45-.68-.5-.8-.5-.36 0-.7.34-1.06 1.03-.03.06-.02.13.02.18L68.13 10.34zM67.19 18.28h.41c.08 0 .15-.07.15-.15v-3.56c0-.25 0-.47.02-.66.01-.19.03-.35.04-.46.19-1.06.85-1.57 2.03-1.57.63 0 1.08.18 1.35.51.23.3.35.8.35 1.47v4.27c0 .08.07.15.15.15h.41c.08 0 .16-.07.16-.15v-4.4c0-1.68-.82-2.53-2.43-2.53-.92 0-1.61.29-2.08.86v-.56c0-.09-.07-.16-.15-.16h-.41c-.09 0-.16.07-.16.16v6.63C67.03 18.21 67.1 18.28 67.19 18.28zM76.02 18.45c1.01 0 1.8-.37 2.37-1.09.47-.65.72-1.5.72-2.53 0-1.03-.24-1.88-.72-2.52-.55-.74-1.35-1.11-2.37-1.11-1.02 0-1.81.37-2.35 1.11-.48.64-.72 1.48-.72 2.52 0 1.03.24 1.89.72 2.53C74.22 18.08 75.01 18.45 76.02 18.45zM76.02 11.87c.8 0 1.39.29 1.81.89.36.52.55 1.22.55 2.07 0 .86-.19 1.56-.55 2.07-.42.6-1.02.89-1.81.89-.79 0-1.38-.29-1.8-.89-.37-.51-.55-1.21-.55-2.07 0-.85.19-1.55.55-2.07C74.63 12.16 75.22 11.87 76.02 11.87zM80.43 17.89c.48.37 1.09.56 1.83.56.65 0 1.22-.16 1.7-.48.54-.38.82-.9.82-1.54 0-.6-.25-1.08-.75-1.41-.29-.2-.78-.38-1.5-.57l-.02 0c-.03 0-.05-.01-.06-.01-.02-.01-.03-.02-.05-.02-1.27-.32-1.92-.78-1.92-1.36 0-.39.18-.68.53-.9.31-.19.68-.28 1.12-.28 1.04 0 1.61.46 1.74 1.41.01.08.08.14.16.14h.39c.04 0 .09-.02.11-.05.03-.03.04-.08.04-.12-.07-.64-.33-1.16-.77-1.52-.43-.34-.97-.52-1.62-.52-.62 0-1.17.14-1.62.43-.53.34-.81.84-.81 1.47 0 .54.2.96.6 1.27.33.26 1.03.53 2.16.82.09.01.15.03.21.05.05.02.09.03.12.04.81.22 1.2.59 1.2 1.13 0 .46-.18.79-.55 1.03-.33.21-.74.32-1.24.32-1.12 0-1.77-.53-1.96-1.63C80.28 16.06 80.21 16 80.13 16h-.4c-.04 0-.08.02-.11.05-.03.03-.05.07-.04.12C79.65 16.91 79.93 17.49 80.43 17.89zM49.02 28.35c.76 0 1.4-.22 1.91-.64.35-.32.61-.73.76-1.23.02-.07-.01-.14-.07-.18l-.35-.2c-.04-.02-.09-.03-.14-.01-.05.02-.08.06-.09.11-.12.47-.36.84-.71 1.1-.36.26-.79.4-1.27.4-.79 0-1.38-.29-1.8-.89-.36-.52-.55-1.21-.55-2.07 0-.85.18-1.54.55-2.07.41-.6.99-.89 1.8-.89.51 0 .95.14 1.31.42.28.23.46.49.57.79.01.04.05.08.09.1.05.01.1.01.14-.02l.34-.23c.07-.04.09-.12.06-.19-.4-1.03-1.24-1.54-2.51-1.54-1.02 0-1.81.38-2.35 1.11-.48.64-.72 1.48-.72 2.52 0 1.01.24 1.85.71 2.5C47.23 27.97 48.02 28.35 49.02 28.35zM55.56 28.35c1.01 0 1.8-.37 2.36-1.09.48-.64.72-1.49.72-2.53 0-1.03-.24-1.88-.72-2.52-.55-.74-1.34-1.11-2.36-1.11-1.02 0-1.81.38-2.35 1.11-.48.64-.72 1.48-.72 2.52 0 1.04.25 1.89.72 2.53C53.75 27.98 54.54 28.35 55.56 28.35zM55.56 21.77c.8 0 1.39.29 1.81.89.37.52.55 1.22.55 2.07 0 .86-.18 1.55-.55 2.07-.42.6-1.01.89-1.81.89-.8 0-1.39-.29-1.8-.89-.37-.52-.55-1.21-.55-2.07 0-.85.19-1.54.55-2.07C54.16 22.06 54.75 21.77 55.56 21.77zM59.64 21.4v6.63c0 .09.07.16.16.16h.41c.08 0 .15-.07.15-.16v-4.4c0-.42.11-.75.34-1.01.28-.32.56-.53.82-.6.09-.03.26-.07.62-.07.05 0 .1-.02.13-.06l.25-.36c.04-.05.04-.11.02-.16-.03-.05-.08-.08-.14-.09h-.04c-.91 0-1.57.24-2 .71V21.4c0-.08-.07-.15-.15-.15H59.8C59.71 21.24 59.64 21.31 59.64 21.4zM63.7 21.24h-.41c-.08 0-.16.07-.16.15v6.63c0 .09.07.16.16.16h.41c.08 0 .16-.07.16-.16v-4.4c0-.42.11-.75.33-1.01.28-.32.56-.53.83-.6.08-.03.25-.07.62-.07.05 0 .1-.02.13-.06l.26-.36c.03-.05.04-.11.01-.16-.03-.05-.08-.08-.14-.09h-.04c-.91 0-1.58.24-2 .71V21.4C63.86 21.31 63.79 21.24 63.7 21.24zM69.04 28.35c.92 0 1.61-.29 2.08-.84v.52c0 .09.07.16.16.16h.39c.09 0 .16-.07.16-.16V21.4c0-.08-.07-.15-.16-.15h-.39c-.09 0-.16.07-.16.15v3.59c0 .26-.01.49-.02.67-.01.19-.03.34-.04.46-.19 1.05-.86 1.56-2.03 1.56-.63 0-1.09-.17-1.35-.52-.23-.29-.36-.78-.36-1.46V21.4c0-.08-.07-.15-.16-.15h-.39c-.09 0-.16.07-.16.15v4.44C66.61 27.5 67.43 28.35 69.04 28.35zM75.92 28.36c1.06 0 1.86-.39 2.37-1.14v.07c0 .9-.09 1.52-.27 1.84-.39.7-1.09 1.04-2.15 1.04-.56 0-1.03-.11-1.39-.33-.4-.23-.61-.61-.65-1.13 0-.08-.08-.14-.16-.14h-.38c-.04 0-.08.02-.11.05-.03.03-.04.07-.04.11.02.72.3 1.27.85 1.64.47.31 1.08.47 1.79.47 1.29 0 2.23-.41 2.78-1.21.3-.44.45-1.09.45-1.96V21.4c0-.08-.07-.15-.16-.15h-.39c-.09 0-.16.07-.16.15v.83c-.19-.28-.44-.52-.73-.69-.47-.29-1.02-.43-1.62-.43-1.03 0-1.82.37-2.36 1.1-.48.64-.72 1.49-.72 2.53 0 1.03.24 1.88.71 2.53C74.11 27.99 74.9 28.36 75.92 28.36zM75.95 21.77c.8 0 1.39.29 1.8.89.37.53.54 1.22.54 2.07 0 .86-.18 1.55-.54 2.07-.41.6-1 .89-1.8.89-.81 0-1.4-.29-1.81-.89-.37-.52-.55-1.21-.55-2.07 0-.85.19-1.55.56-2.07C74.55 22.06 75.14 21.77 75.95 21.77zM80.76 22.2c-.48.64-.72 1.49-.72 2.53 0 1.04.24 1.89.72 2.53.56.72 1.35 1.09 2.36 1.09 1.06 0 1.84-.38 2.35-1.12v.8c0 .09.07.16.15.16h.4c.08 0 .15-.07.15-.16V21.4c0-.08-.07-.15-.15-.15h-.4c-.08 0-.15.07-.15.15v.87c-.5-.77-1.29-1.17-2.35-1.17C82.1 21.1 81.3 21.47 80.76 22.2zM83.13 27.69c-.81 0-1.4-.29-1.82-.89-.36-.52-.54-1.21-.54-2.07 0-.85.19-1.55.56-2.07.4-.6.99-.89 1.8-.89.8 0 1.39.29 1.8.89.36.52.55 1.22.55 2.07 0 .86-.19 1.55-.55 2.07C84.52 27.4 83.93 27.69 83.13 27.69zM93.2 18.7h-.4c-.09 0-.15.07-.15.15v3.35c-.49-.73-1.28-1.11-2.35-1.11-1.01 0-1.81.37-2.35 1.11-.48.64-.72 1.48-.72 2.52 0 1.05.24 1.9.72 2.53.54.72 1.33 1.09 2.35 1.09 1.06 0 1.85-.39 2.35-1.15v.83c0 .09.07.16.15.16h.4c.08 0 .16-.07.16-.16v-9.17C93.36 18.77 93.28 18.7 93.2 18.7zM90.3 21.77c.81 0 1.4.29 1.81.89.36.53.55 1.22.55 2.07 0 .86-.19 1.55-.55 2.07-.41.6-.99.89-1.8.89-.8 0-1.39-.29-1.81-.89-.37-.52-.55-1.21-.55-2.07 0-.85.19-1.55.56-2.07C88.91 22.06 89.5 21.77 90.3 21.77zM97.44 28.35c1.01 0 1.8-.37 2.36-1.09.48-.64.72-1.49.72-2.53 0-1.03-.24-1.88-.72-2.52-.55-.74-1.34-1.11-2.36-1.11-1.02 0-1.81.38-2.35 1.11-.48.64-.72 1.48-.72 2.52 0 1.04.24 1.89.72 2.53C95.63 27.98 96.43 28.35 97.44 28.35zM97.44 21.77c.8 0 1.39.29 1.81.89.37.53.55 1.22.55 2.07 0 .86-.18 1.55-.55 2.07-.42.6-1.02.89-1.81.89-.79 0-1.39-.29-1.8-.89-.36-.52-.55-1.21-.55-2.07 0-.85.19-1.54.55-2.07C96.05 22.06 96.64 21.77 97.44 21.77zM49.37 31.46c-1.06 0-1.84.39-2.34 1.16v-.87c0-.09-.07-.15-.16-.15h-.41c-.09 0-.15.07-.15.15V41c0 .09.07.16.15.16h.41c.08 0 .16-.07.16-.16v-3.41c.49.74 1.28 1.12 2.34 1.12 1.01 0 1.8-.37 2.36-1.08.48-.64.72-1.5.72-2.53 0-1.04-.24-1.89-.72-2.53C51.2 31.83 50.4 31.46 49.37 31.46zM51.74 35.09c0 .86-.19 1.55-.55 2.07-.42.6-1.01.89-1.81.89-.8 0-1.38-.29-1.8-.89-.36-.51-.54-1.21-.54-2.07 0-.85.18-1.55.55-2.07.41-.6.99-.89 1.8-.89.8 0 1.39.29 1.81.89C51.55 33.54 51.74 34.24 51.74 35.09zM53.73 31.6h-.4c-.08 0-.15.07-.15.15v4.43c0 1.67.82 2.52 2.43 2.52.91 0 1.61-.28 2.08-.84v.52c0 .08.07.16.15.16h.4c.09 0 .16-.07.16-.16v-6.63c0-.09-.07-.15-.16-.15h-.4c-.09 0-.15.07-.15.15v3.59c0 .26-.01.48-.02.67-.01.19-.03.34-.04.46-.19 1.05-.85 1.56-2.03 1.56-.63 0-1.09-.17-1.34-.52-.24-.29-.36-.78-.36-1.46v-4.31C53.89 31.67 53.82 31.6 53.73 31.6zM60.01 29.06h-.41c-.09 0-.15.07-.15.15v9.17c0 .08.07.16.15.16h.41c.09 0 .15-.07.15-.16v-.83c.55.77 1.33 1.16 2.35 1.16 1.03 0 1.82-.37 2.36-1.08.48-.64.72-1.49.72-2.53 0-1.03-.24-1.88-.72-2.52-.55-.74-1.34-1.11-2.36-1.11-1.04 0-1.83.39-2.35 1.17v-3.42C60.17 29.13 60.1 29.06 60.01 29.06zM62.51 38.05c-.79 0-1.38-.29-1.79-.89-.37-.51-.55-1.21-.55-2.07 0-.85.19-1.55.55-2.07.4-.6.99-.89 1.79-.89.8 0 1.39.29 1.81.89.36.52.55 1.22.55 2.07 0 .86-.18 1.55-.55 2.07C63.91 37.76 63.31 38.05 62.51 38.05zM66.54 38.54h.39c.09 0 .16-.07.16-.16v-9.17c0-.09-.07-.15-.16-.15h-.39c-.09 0-.16.07-.16.15v9.17C66.38 38.47 66.45 38.54 66.54 38.54zM68.76 38.54c.09 0 .15-.07.15-.16v-6.63c0-.09-.07-.15-.15-.15h-.4c-.08 0-.16.07-.16.15v6.63c0 .08.07.16.16.16H68.76zM70.4 32.57c-.48.64-.72 1.48-.72 2.52 0 1.01.23 1.85.71 2.51.53.74 1.31 1.11 2.31 1.11.76 0 1.4-.22 1.91-.64.35-.32.61-.73.76-1.23.02-.07-.01-.14-.07-.18l-.35-.2c-.04-.02-.09-.03-.13-.01-.05.02-.08.06-.1.11-.12.47-.36.84-.72 1.11-.36.26-.78.4-1.27.4-.79 0-1.38-.29-1.8-.89-.36-.51-.54-1.21-.54-2.07 0-.85.18-1.55.54-2.07.41-.6 1-.89 1.8-.89.52 0 .95.14 1.31.43.28.23.46.49.56.79.02.05.06.08.1.1.05.02.1.01.14-.02l.35-.23c.06-.04.09-.12.06-.19-.4-1.02-1.25-1.54-2.51-1.54C71.72 31.46 70.93 31.83 70.4 32.57zM83.33 38.54h.39c.09 0 .16-.07.16-.16v-9.17c0-.09-.07-.15-.16-.15h-.39c-.08 0-.16.07-.16.15v3.35c-.49-.73-1.28-1.1-2.35-1.1-1.02 0-1.81.37-2.36 1.11-.48.64-.72 1.48-.72 2.52 0 1.04.24 1.9.72 2.53.54.72 1.33 1.08 2.36 1.08 1.06 0 1.85-.39 2.35-1.15v.83C83.17 38.47 83.25 38.54 83.33 38.54zM80.82 32.13c.81 0 1.4.29 1.8.89.37.52.55 1.22.55 2.07 0 .86-.18 1.55-.55 2.07-.4.6-.99.89-1.8.89-.8 0-1.39-.29-1.81-.89-.36-.51-.54-1.21-.54-2.07 0-.85.19-1.55.56-2.07C79.43 32.42 80.02 32.13 80.82 32.13zM90.22 38.54h.4c.08 0 .15-.07.15-.16v-6.63c0-.09-.07-.15-.15-.15h-.4c-.08 0-.15.07-.15.15v.87c-.51-.78-1.29-1.16-2.35-1.16-1.03 0-1.82.37-2.36 1.1-.48.64-.72 1.49-.72 2.53 0 1.04.24 1.89.72 2.54.55.72 1.35 1.08 2.36 1.08 1.06 0 1.85-.38 2.35-1.12v.8C90.07 38.47 90.14 38.54 90.22 38.54zM87.72 38.05c-.81 0-1.4-.29-1.81-.89-.37-.51-.55-1.21-.55-2.07 0-.85.19-1.55.56-2.07.41-.6.99-.89 1.8-.89.8 0 1.39.29 1.8.89.36.52.55 1.22.55 2.07 0 .86-.19 1.55-.55 2.07C89.11 37.76 88.52 38.05 87.72 38.05zM97.12 38.54h.39c.08 0 .15-.07.15-.16v-9.17c0-.09-.07-.15-.15-.15h-.39c-.09 0-.16.07-.16.15v3.35c-.49-.73-1.28-1.1-2.35-1.1-1.02 0-1.81.37-2.36 1.11-.48.64-.72 1.48-.72 2.52 0 1.04.25 1.9.72 2.53.54.72 1.34 1.08 2.36 1.08 1.05 0 1.84-.39 2.35-1.15v.83C96.96 38.47 97.03 38.54 97.12 38.54zM94.62 32.13c.8 0 1.39.29 1.8.89.37.52.55 1.22.55 2.07 0 .86-.18 1.55-.55 2.07-.4.6-.99.89-1.8.89-.81 0-1.4-.29-1.81-.89-.36-.51-.55-1.21-.55-2.07 0-.85.19-1.55.56-2.07C93.22 32.42 93.82 32.13 94.62 32.13zM87.85 18.52c.44 0 .83-.13 1.14-.38.25-.19.43-.45.54-.75.03-.07 0-.15-.07-.19l-.2-.11c-.04-.02-.09-.02-.13-.01-.04.02-.07.05-.09.09-.21.55-.6.82-1.19.82-.42 0-.74-.17-.98-.51-.2-.28-.31-.64-.32-1.07h3.01c.09 0 .16-.07.16-.16v-.15c0-.62-.15-1.12-.44-1.5-.33-.43-.81-.65-1.42-.65-.63 0-1.12.25-1.45.73-.28.4-.43.92-.43 1.56 0 .63.15 1.16.43 1.57C86.73 18.28 87.22 18.52 87.85 18.52zM88.83 14.95c.17.25.28.56.3.93h-2.56c.05-.38.17-.69.35-.93.24-.3.56-.45.98-.45C88.3 14.49 88.6 14.64 88.83 14.95zM90.17 18.42h.25c.08 0 .16-.07.16-.16v-2.17c0-.15.01-.29.01-.4 0-.12.01-.21.02-.28.11-.62.49-.91 1.18-.91.37 0 .62.1.77.29.13.18.21.46.21.86v2.61c0 .09.06.16.15.16h.25c.08 0 .16-.07.16-.16v-2.69c0-1.05-.54-1.61-1.55-1.61-.51 0-.92.15-1.21.43V14.2c0-.09-.07-.15-.16-.15h-.25c-.09 0-.16.07-.16.15v4.06C90.01 18.34 90.08 18.42 90.17 18.42zM102.21 29.54c.27.21.62.32 1.04.32.36 0 .68-.06.95-.19.44-.22.73-.57.83-1.04.02-.11.04-.21.06-.31.01-.09.02-.18.02-.28v-4.05c0-.09-.06-.16-.15-.16h-.25c-.08 0-.15.07-.15.16v2.17c0 .15-.01.3-.01.41-.01.11-.02.21-.03.27-.11.62-.48.91-1.18.91-.37 0-.63-.1-.77-.29-.13-.17-.2-.46-.2-.86v-2.61c0-.09-.07-.16-.16-.16h-.25c-.09 0-.15.07-.15.16v2.69c0 1.05.53 1.61 1.54 1.61.52 0 .92-.14 1.21-.43V28c0 .18-.01.31-.02.4-.01.07-.02.13-.05.18-.02.06-.04.11-.06.16-.21.4-.57.6-1.11.6-.3 0-.54-.07-.73-.2-.2-.13-.3-.34-.31-.61-.01-.08-.08-.15-.16-.15h-.21c-.04 0-.08.02-.11.05-.03.03-.05.07-.05.11C101.75 28.96 101.9 29.3 102.21 29.54zM76.8 38.54c.09 0 .16-.07.16-.16v-6.63c0-.09-.07-.15-.16-.15h-.39c-.09 0-.16.07-.16.15v6.63c0 .08.07.16.16.16H76.8z" class="color8cc186 svgShape"></path><g fill="#ffffff" class="color000 svgShape"><path fill="#ffffff" d="M54.45 9.9c0 .47-.38.85-.86.85-.47 0-.85-.38-.85-.85 0-.47.38-.85.85-.85C54.07 9.05 54.45 9.43 54.45 9.9zM77.46 30.17c0 .47-.38.85-.85.85-.47 0-.85-.38-.85-.85 0-.47.38-.86.85-.86C77.07 29.31 77.46 29.69 77.46 30.17zM69.41 30.17c0 .47-.38.85-.85.85-.47 0-.85-.38-.85-.85 0-.47.38-.86.85-.86C69.03 29.31 69.41 29.69 69.41 30.17z" class="color8cc186 svgShape"></path></g><g fill="#ffffff" class="color000 svgShape"><path fill="#ffffff" d="M12.66 14.99c-7.8-3.18-5.4-6.93-5.4-6.93s-4.57 4.25-.37 13.37c2.92 6.34 7.63 6.37 10.23 5.79-.03-1.81.39-2.85-1.56-6.98-1.37-2.9-5.83-5.63-5.83-5.63 7.04 2.81 8.74 10.04 9.09 12.08.11-.05.17-.08.17-.08S20.47 18.17 12.66 14.99zM24.89 5.92c0 0 2.24 1.82-1.92 5.39-4.17 3.58-1.53 8.46-1.53 8.46s.04 0 .12.01c-.2-1.32-.63-6.13 3.14-9.33 0 0-2.19 2.62-2.46 4.68-.36 2.95.11 3.51.46 4.63 1.72-.19 4.62-1.18 5.13-5.69C28.58 7.58 24.89 5.92 24.89 5.92zM36.62 10.71c0 0 3.69 5.79-8.33 10.67-12.02 4.89-9.73 17.88-9.73 17.88s.09.05.26.12c.53-3.15 3.16-14.27 14-18.6 0 0-6.88 4.22-8.98 8.67-3.02 6.37-2.37 7.97-2.4 10.76.92.2 2.01.36 3.19.36 4 0 9.1-1.75 12.57-9.28C43.66 17.24 36.62 10.71 36.62 10.71z" class="color8cc186 svgShape"></path></g></svg></g></svg>