<?xml version="1.0" encoding="utf-8"?>
<!-- Generator: Adobe Illustrator 25.4.1, SVG Export Plug-In . SVG Version: 6.00 Build 0)  -->
<svg version="1.1" id="Capa_1" xmlns="http://www.w3.org/2000/svg" xmlns:xlink="http://www.w3.org/1999/xlink" x="0px" y="0px"
	 viewBox="0 0 110.49 48" style="enable-background:new 0 0 110.49 48;" xml:space="preserve">
<style type="text/css">
	.st0{fill:#8CC186;}
</style>
<g>
	<g id="XMLID_984_">
		<g id="XMLID_989_">
			<path id="XMLID_1045_" class="st0" d="M49.09,18.45c1.06,0,1.84-0.39,2.35-1.15v0.83c0,0.08,0.07,0.15,0.15,0.15h0.4
				c0.09,0,0.15-0.07,0.15-0.15V8.95c0-0.09-0.06-0.16-0.15-0.16h-0.4c-0.08,0-0.15,0.07-0.15,0.16v3.35
				c-0.49-0.73-1.28-1.1-2.35-1.1c-1.02,0-1.81,0.37-2.36,1.11c-0.47,0.64-0.72,1.48-0.72,2.52c0,1.04,0.24,1.9,0.72,2.53
				C47.27,18.08,48.07,18.45,49.09,18.45z M49.09,11.87c0.8,0,1.39,0.29,1.8,0.89c0.36,0.52,0.55,1.22,0.55,2.07
				c0,0.86-0.19,1.56-0.55,2.07c-0.41,0.6-1,0.89-1.8,0.89c-0.8,0-1.4-0.29-1.81-0.89c-0.37-0.51-0.55-1.21-0.55-2.07
				c0-0.86,0.19-1.55,0.56-2.07C47.7,12.16,48.29,11.87,49.09,11.87z"/>
			<path id="XMLID_1044_" class="st0" d="M53.4,18.28h0.39c0.09,0,0.16-0.07,0.16-0.15v-6.63c0-0.09-0.07-0.16-0.16-0.16H53.4
				c-0.09,0-0.16,0.07-0.16,0.16v6.63C53.24,18.21,53.31,18.28,53.4,18.28z"/>
			<path id="XMLID_1043_" class="st0" d="M55.64,17.89c0.48,0.37,1.09,0.56,1.83,0.56c0.65,0,1.22-0.16,1.7-0.48
				c0.54-0.38,0.82-0.9,0.82-1.54c0-0.6-0.25-1.08-0.75-1.41c-0.29-0.2-0.78-0.38-1.51-0.57c0,0-0.01,0-0.02,0
				c-0.03,0-0.04-0.01-0.05-0.01c-0.02-0.01-0.04-0.02-0.05-0.02c-1.27-0.32-1.92-0.78-1.92-1.36c0-0.39,0.17-0.68,0.52-0.9
				c0.31-0.19,0.68-0.28,1.12-0.28c1.04,0,1.61,0.46,1.74,1.41c0.01,0.08,0.08,0.14,0.15,0.14h0.4c0.04,0,0.09-0.02,0.12-0.05
				c0.02-0.03,0.04-0.08,0.04-0.12c-0.07-0.64-0.33-1.16-0.77-1.52c-0.42-0.34-0.97-0.52-1.62-0.52c-0.62,0-1.17,0.14-1.62,0.43
				c-0.54,0.34-0.81,0.84-0.81,1.47c0,0.54,0.2,0.96,0.6,1.27c0.34,0.26,1.04,0.53,2.16,0.82c0.08,0.01,0.15,0.03,0.2,0.05
				c0.06,0.02,0.09,0.03,0.13,0.04c0.81,0.22,1.2,0.59,1.2,1.13c0,0.46-0.18,0.79-0.56,1.03c-0.33,0.21-0.74,0.32-1.24,0.32
				c-1.12,0-1.77-0.53-1.97-1.63C55.48,16.06,55.42,16,55.34,16h-0.39c-0.05,0-0.09,0.02-0.11,0.05c-0.03,0.03-0.05,0.07-0.04,0.12
				C54.85,16.91,55.14,17.49,55.64,17.89z"/>
			<path id="XMLID_1040_" class="st0" d="M63.4,18.45c0.69,0,1.3-0.2,1.81-0.6c0.39-0.31,0.67-0.7,0.85-1.18
				c0.03-0.07,0-0.15-0.07-0.19l-0.33-0.18c-0.04-0.02-0.09-0.02-0.13-0.01c-0.04,0.02-0.08,0.05-0.09,0.09
				c-0.36,0.94-1.03,1.4-2.04,1.4c-0.73,0-1.28-0.29-1.69-0.88c-0.36-0.5-0.54-1.14-0.55-1.9h5.01c0.09,0,0.16-0.07,0.16-0.16v-0.24
				c0-0.99-0.24-1.8-0.69-2.39c-0.51-0.67-1.27-1.02-2.24-1.02c-1,0-1.77,0.38-2.29,1.14c-0.45,0.64-0.67,1.47-0.67,2.49
				c0,1.01,0.23,1.86,0.67,2.51C61.63,18.07,62.4,18.45,63.4,18.45z M61.19,14.33c0.07-0.68,0.27-1.25,0.6-1.69
				c0.41-0.52,0.96-0.77,1.68-0.77c0.69,0,1.22,0.26,1.6,0.79c0.31,0.44,0.49,1,0.51,1.67H61.19z"/>
			<path id="XMLID_1039_" class="st0" d="M68.13,10.34c0.03,0.03,0.09,0.05,0.13,0.04c0.05-0.01,0.09-0.04,0.12-0.08
				c0.28-0.55,0.47-0.65,0.57-0.67c0.03,0.01,0.16,0.08,0.53,0.41c0.39,0.33,0.66,0.48,0.86,0.48h0c0.28-0.01,0.5-0.12,0.67-0.33
				c0.02-0.03,0.05-0.07,0.14-0.23c0.05-0.11,0.14-0.26,0.25-0.46c0.03-0.05,0.03-0.12,0-0.17l-0.2-0.27C71.15,9.02,71.1,9,71.04,9
				c-0.06,0-0.1,0.04-0.13,0.09c-0.04,0.09-0.08,0.17-0.11,0.25c-0.03,0.07-0.07,0.15-0.1,0.24c-0.13,0.23-0.28,0.26-0.37,0.26
				c-0.01,0-0.14-0.02-0.58-0.4c-0.47-0.45-0.68-0.5-0.8-0.5c-0.36,0-0.7,0.34-1.06,1.03c-0.03,0.06-0.02,0.13,0.02,0.18
				L68.13,10.34z"/>
			<path id="XMLID_1038_" class="st0" d="M67.19,18.28h0.41c0.08,0,0.15-0.07,0.15-0.15v-3.56c0-0.25,0-0.47,0.02-0.66
				c0.01-0.19,0.03-0.35,0.04-0.46c0.19-1.06,0.85-1.57,2.03-1.57c0.63,0,1.08,0.18,1.35,0.51c0.23,0.3,0.35,0.8,0.35,1.47v4.27
				c0,0.08,0.07,0.15,0.15,0.15h0.41c0.08,0,0.16-0.07,0.16-0.15v-4.4c0-1.68-0.82-2.53-2.43-2.53c-0.92,0-1.61,0.29-2.08,0.86
				v-0.56c0-0.09-0.07-0.16-0.15-0.16h-0.41c-0.09,0-0.16,0.07-0.16,0.16v6.63C67.03,18.21,67.1,18.28,67.19,18.28z"/>
			<path id="XMLID_1035_" class="st0" d="M76.02,18.45c1.01,0,1.8-0.37,2.37-1.09c0.47-0.65,0.72-1.5,0.72-2.53
				c0-1.03-0.24-1.88-0.72-2.52c-0.55-0.74-1.35-1.11-2.37-1.11c-1.02,0-1.81,0.37-2.35,1.11c-0.48,0.64-0.72,1.48-0.72,2.52
				c0,1.03,0.24,1.89,0.72,2.53C74.22,18.08,75.01,18.45,76.02,18.45z M76.02,11.87c0.8,0,1.39,0.29,1.81,0.89
				c0.36,0.52,0.55,1.22,0.55,2.07c0,0.86-0.19,1.56-0.55,2.07c-0.42,0.6-1.02,0.89-1.81,0.89c-0.79,0-1.38-0.29-1.8-0.89
				c-0.37-0.51-0.55-1.21-0.55-2.07c0-0.85,0.19-1.55,0.55-2.07C74.63,12.16,75.22,11.87,76.02,11.87z"/>
			<path id="XMLID_1034_" class="st0" d="M80.43,17.89c0.48,0.37,1.09,0.56,1.83,0.56c0.65,0,1.22-0.16,1.7-0.48
				c0.54-0.38,0.82-0.9,0.82-1.54c0-0.6-0.25-1.08-0.75-1.41c-0.29-0.2-0.78-0.38-1.5-0.57l-0.02,0c-0.03,0-0.05-0.01-0.06-0.01
				c-0.02-0.01-0.03-0.02-0.05-0.02c-1.27-0.32-1.92-0.78-1.92-1.36c0-0.39,0.18-0.68,0.53-0.9c0.31-0.19,0.68-0.28,1.12-0.28
				c1.04,0,1.61,0.46,1.74,1.41c0.01,0.08,0.08,0.14,0.16,0.14h0.39c0.04,0,0.09-0.02,0.11-0.05c0.03-0.03,0.04-0.08,0.04-0.12
				c-0.07-0.64-0.33-1.16-0.77-1.52c-0.43-0.34-0.97-0.52-1.62-0.52c-0.62,0-1.17,0.14-1.62,0.43c-0.53,0.34-0.81,0.84-0.81,1.47
				c0,0.54,0.2,0.96,0.6,1.27c0.33,0.26,1.03,0.53,2.16,0.82c0.09,0.01,0.15,0.03,0.21,0.05c0.05,0.02,0.09,0.03,0.12,0.04
				c0.81,0.22,1.2,0.59,1.2,1.13c0,0.46-0.18,0.79-0.55,1.03c-0.33,0.21-0.74,0.32-1.24,0.32c-1.12,0-1.77-0.53-1.96-1.63
				C80.28,16.06,80.21,16,80.13,16h-0.4c-0.04,0-0.08,0.02-0.11,0.05c-0.03,0.03-0.05,0.07-0.04,0.12
				C79.65,16.91,79.93,17.49,80.43,17.89z"/>
			<path id="XMLID_1033_" class="st0" d="M49.02,28.35c0.76,0,1.4-0.22,1.91-0.64c0.35-0.32,0.61-0.73,0.76-1.23
				c0.02-0.07-0.01-0.14-0.07-0.18l-0.35-0.2c-0.04-0.02-0.09-0.03-0.14-0.01c-0.05,0.02-0.08,0.06-0.09,0.11
				c-0.12,0.47-0.36,0.84-0.71,1.1c-0.36,0.26-0.79,0.4-1.27,0.4c-0.79,0-1.38-0.29-1.8-0.89c-0.36-0.52-0.55-1.21-0.55-2.07
				c0-0.85,0.18-1.54,0.55-2.07c0.41-0.6,0.99-0.89,1.8-0.89c0.51,0,0.95,0.14,1.31,0.42c0.28,0.23,0.46,0.49,0.57,0.79
				c0.01,0.04,0.05,0.08,0.09,0.1c0.05,0.01,0.1,0.01,0.14-0.02l0.34-0.23c0.07-0.04,0.09-0.12,0.06-0.19
				c-0.4-1.03-1.24-1.54-2.51-1.54c-1.02,0-1.81,0.38-2.35,1.11c-0.48,0.64-0.72,1.48-0.72,2.52c0,1.01,0.24,1.85,0.71,2.5
				C47.23,27.97,48.02,28.35,49.02,28.35z"/>
			<path id="XMLID_1030_" class="st0" d="M55.56,28.35c1.01,0,1.8-0.37,2.36-1.09c0.48-0.64,0.72-1.49,0.72-2.53
				c0-1.03-0.24-1.88-0.72-2.52c-0.55-0.74-1.34-1.11-2.36-1.11c-1.02,0-1.81,0.38-2.35,1.11c-0.48,0.64-0.72,1.48-0.72,2.52
				c0,1.04,0.25,1.89,0.72,2.53C53.75,27.98,54.54,28.35,55.56,28.35z M55.56,21.77c0.8,0,1.39,0.29,1.81,0.89
				c0.37,0.52,0.55,1.22,0.55,2.07c0,0.86-0.18,1.55-0.55,2.07c-0.42,0.6-1.01,0.89-1.81,0.89c-0.8,0-1.39-0.29-1.8-0.89
				c-0.37-0.52-0.55-1.21-0.55-2.07c0-0.85,0.19-1.54,0.55-2.07C54.16,22.06,54.75,21.77,55.56,21.77z"/>
			<path id="XMLID_1029_" class="st0" d="M59.64,21.4v6.63c0,0.09,0.07,0.16,0.16,0.16h0.41c0.08,0,0.15-0.07,0.15-0.16v-4.4
				c0-0.42,0.11-0.75,0.34-1.01c0.28-0.32,0.56-0.53,0.82-0.6c0.09-0.03,0.26-0.07,0.62-0.07c0.05,0,0.1-0.02,0.13-0.06l0.25-0.36
				c0.04-0.05,0.04-0.11,0.02-0.16c-0.03-0.05-0.08-0.08-0.14-0.09h-0.04c-0.91,0-1.57,0.24-2,0.71V21.4c0-0.08-0.07-0.15-0.15-0.15
				H59.8C59.71,21.24,59.64,21.31,59.64,21.4z"/>
			<path id="XMLID_1028_" class="st0" d="M63.7,21.24h-0.41c-0.08,0-0.16,0.07-0.16,0.15v6.63c0,0.09,0.07,0.16,0.16,0.16h0.41
				c0.08,0,0.16-0.07,0.16-0.16v-4.4c0-0.42,0.11-0.75,0.33-1.01c0.28-0.32,0.56-0.53,0.83-0.6c0.08-0.03,0.25-0.07,0.62-0.07
				c0.05,0,0.1-0.02,0.13-0.06l0.26-0.36c0.03-0.05,0.04-0.11,0.01-0.16c-0.03-0.05-0.08-0.08-0.14-0.09h-0.04
				c-0.91,0-1.58,0.24-2,0.71V21.4C63.86,21.31,63.79,21.24,63.7,21.24z"/>
			<path id="XMLID_1027_" class="st0" d="M69.04,28.35c0.92,0,1.61-0.29,2.08-0.84v0.52c0,0.09,0.07,0.16,0.16,0.16h0.39
				c0.09,0,0.16-0.07,0.16-0.16V21.4c0-0.08-0.07-0.15-0.16-0.15h-0.39c-0.09,0-0.16,0.07-0.16,0.15v3.59
				c0,0.26-0.01,0.49-0.02,0.67c-0.01,0.19-0.03,0.34-0.04,0.46c-0.19,1.05-0.86,1.56-2.03,1.56c-0.63,0-1.09-0.17-1.35-0.52
				c-0.23-0.29-0.36-0.78-0.36-1.46V21.4c0-0.08-0.07-0.15-0.16-0.15h-0.39c-0.09,0-0.16,0.07-0.16,0.15v4.44
				C66.61,27.5,67.43,28.35,69.04,28.35z"/>
			<path id="XMLID_1024_" class="st0" d="M75.92,28.36c1.06,0,1.86-0.39,2.37-1.14v0.07c0,0.9-0.09,1.52-0.27,1.84
				c-0.39,0.7-1.09,1.04-2.15,1.04c-0.56,0-1.03-0.11-1.39-0.33c-0.4-0.23-0.61-0.61-0.65-1.13c0-0.08-0.08-0.14-0.16-0.14h-0.38
				c-0.04,0-0.08,0.02-0.11,0.05c-0.03,0.03-0.04,0.07-0.04,0.11c0.02,0.72,0.3,1.27,0.85,1.64c0.47,0.31,1.08,0.47,1.79,0.47
				c1.29,0,2.23-0.41,2.78-1.21c0.3-0.44,0.45-1.09,0.45-1.96V21.4c0-0.08-0.07-0.15-0.16-0.15h-0.39c-0.09,0-0.16,0.07-0.16,0.15
				v0.83c-0.19-0.28-0.44-0.52-0.73-0.69c-0.47-0.29-1.02-0.43-1.62-0.43c-1.03,0-1.82,0.37-2.36,1.1
				c-0.48,0.64-0.72,1.49-0.72,2.53c0,1.03,0.24,1.88,0.71,2.53C74.11,27.99,74.9,28.36,75.92,28.36z M75.95,21.77
				c0.8,0,1.39,0.29,1.8,0.89c0.37,0.53,0.54,1.22,0.54,2.07c0,0.86-0.18,1.55-0.54,2.07c-0.41,0.6-1,0.89-1.8,0.89
				c-0.81,0-1.4-0.29-1.81-0.89c-0.37-0.52-0.55-1.21-0.55-2.07c0-0.85,0.19-1.55,0.56-2.07C74.55,22.06,75.14,21.77,75.95,21.77z"
				/>
			<path id="XMLID_1021_" class="st0" d="M80.76,22.2c-0.48,0.64-0.72,1.49-0.72,2.53c0,1.04,0.24,1.89,0.72,2.53
				c0.56,0.72,1.35,1.09,2.36,1.09c1.06,0,1.84-0.38,2.35-1.12v0.8c0,0.09,0.07,0.16,0.15,0.16h0.4c0.08,0,0.15-0.07,0.15-0.16V21.4
				c0-0.08-0.07-0.15-0.15-0.15h-0.4c-0.08,0-0.15,0.07-0.15,0.15v0.87c-0.5-0.77-1.29-1.17-2.35-1.17
				C82.1,21.1,81.3,21.47,80.76,22.2z M83.13,27.69c-0.81,0-1.4-0.29-1.82-0.89c-0.36-0.52-0.54-1.21-0.54-2.07
				c0-0.85,0.19-1.55,0.56-2.07c0.4-0.6,0.99-0.89,1.8-0.89c0.8,0,1.39,0.29,1.8,0.89c0.36,0.52,0.55,1.22,0.55,2.07
				c0,0.86-0.19,1.55-0.55,2.07C84.52,27.4,83.93,27.69,83.13,27.69z"/>
			<path id="XMLID_1018_" class="st0" d="M93.2,18.7h-0.4c-0.09,0-0.15,0.07-0.15,0.15v3.35c-0.49-0.73-1.28-1.11-2.35-1.11
				c-1.01,0-1.81,0.37-2.35,1.11c-0.48,0.64-0.72,1.48-0.72,2.52c0,1.05,0.24,1.9,0.72,2.53c0.54,0.72,1.33,1.09,2.35,1.09
				c1.06,0,1.85-0.39,2.35-1.15v0.83c0,0.09,0.07,0.16,0.15,0.16h0.4c0.08,0,0.16-0.07,0.16-0.16v-9.17
				C93.36,18.77,93.28,18.7,93.2,18.7z M90.3,21.77c0.81,0,1.4,0.29,1.81,0.89c0.36,0.53,0.55,1.22,0.55,2.07
				c0,0.86-0.19,1.55-0.55,2.07c-0.41,0.6-0.99,0.89-1.8,0.89c-0.8,0-1.39-0.29-1.81-0.89c-0.37-0.52-0.55-1.21-0.55-2.07
				c0-0.85,0.19-1.55,0.56-2.07C88.91,22.06,89.5,21.77,90.3,21.77z"/>
			<path id="XMLID_1015_" class="st0" d="M97.44,28.35c1.01,0,1.8-0.37,2.36-1.09c0.48-0.64,0.72-1.49,0.72-2.53
				c0-1.03-0.24-1.88-0.72-2.52c-0.55-0.74-1.34-1.11-2.36-1.11c-1.02,0-1.81,0.38-2.35,1.11c-0.48,0.64-0.72,1.48-0.72,2.52
				c0,1.04,0.24,1.89,0.72,2.53C95.63,27.98,96.43,28.35,97.44,28.35z M97.44,21.77c0.8,0,1.39,0.29,1.81,0.89
				c0.37,0.53,0.55,1.22,0.55,2.07c0,0.86-0.18,1.55-0.55,2.07c-0.42,0.6-1.02,0.89-1.81,0.89c-0.79,0-1.39-0.29-1.8-0.89
				c-0.36-0.52-0.55-1.21-0.55-2.07c0-0.85,0.19-1.54,0.55-2.07C96.05,22.06,96.64,21.77,97.44,21.77z"/>
			<path id="XMLID_1012_" class="st0" d="M49.37,31.46c-1.06,0-1.84,0.39-2.34,1.16v-0.87c0-0.09-0.07-0.15-0.16-0.15h-0.41
				c-0.09,0-0.15,0.07-0.15,0.15V41c0,0.09,0.07,0.16,0.15,0.16h0.41c0.08,0,0.16-0.07,0.16-0.16v-3.41
				c0.49,0.74,1.28,1.12,2.34,1.12c1.01,0,1.8-0.37,2.36-1.08c0.48-0.64,0.72-1.5,0.72-2.53c0-1.04-0.24-1.89-0.72-2.53
				C51.2,31.83,50.4,31.46,49.37,31.46z M51.74,35.09c0,0.86-0.19,1.55-0.55,2.07c-0.42,0.6-1.01,0.89-1.81,0.89
				c-0.8,0-1.38-0.29-1.8-0.89c-0.36-0.51-0.54-1.21-0.54-2.07c0-0.85,0.18-1.55,0.55-2.07c0.41-0.6,0.99-0.89,1.8-0.89
				c0.8,0,1.39,0.29,1.81,0.89C51.55,33.54,51.74,34.24,51.74,35.09z"/>
			<path id="XMLID_1011_" class="st0" d="M53.73,31.6h-0.4c-0.08,0-0.15,0.07-0.15,0.15v4.43c0,1.67,0.82,2.52,2.43,2.52
				c0.91,0,1.61-0.28,2.08-0.84v0.52c0,0.08,0.07,0.16,0.15,0.16h0.4c0.09,0,0.16-0.07,0.16-0.16v-6.63c0-0.09-0.07-0.15-0.16-0.15
				h-0.4c-0.09,0-0.15,0.07-0.15,0.15v3.59c0,0.26-0.01,0.48-0.02,0.67c-0.01,0.19-0.03,0.34-0.04,0.46
				c-0.19,1.05-0.85,1.56-2.03,1.56c-0.63,0-1.09-0.17-1.34-0.52c-0.24-0.29-0.36-0.78-0.36-1.46v-4.31
				C53.89,31.67,53.82,31.6,53.73,31.6z"/>
			<path id="XMLID_1008_" class="st0" d="M60.01,29.06h-0.41c-0.09,0-0.15,0.07-0.15,0.15v9.17c0,0.08,0.07,0.16,0.15,0.16h0.41
				c0.09,0,0.15-0.07,0.15-0.16v-0.83c0.55,0.77,1.33,1.16,2.35,1.16c1.03,0,1.82-0.37,2.36-1.08c0.48-0.64,0.72-1.49,0.72-2.53
				c0-1.03-0.24-1.88-0.72-2.52c-0.55-0.74-1.34-1.11-2.36-1.11c-1.04,0-1.83,0.39-2.35,1.17v-3.42
				C60.17,29.13,60.1,29.06,60.01,29.06z M62.51,38.05c-0.79,0-1.38-0.29-1.79-0.89c-0.37-0.51-0.55-1.21-0.55-2.07
				c0-0.85,0.19-1.55,0.55-2.07c0.4-0.6,0.99-0.89,1.79-0.89c0.8,0,1.39,0.29,1.81,0.89c0.36,0.52,0.55,1.22,0.55,2.07
				c0,0.86-0.18,1.55-0.55,2.07C63.91,37.76,63.31,38.05,62.51,38.05z"/>
			<path id="XMLID_1007_" class="st0" d="M66.54,38.54h0.39c0.09,0,0.16-0.07,0.16-0.16v-9.17c0-0.09-0.07-0.15-0.16-0.15h-0.39
				c-0.09,0-0.16,0.07-0.16,0.15v9.17C66.38,38.47,66.45,38.54,66.54,38.54z"/>
			<path id="XMLID_1006_" class="st0" d="M68.76,38.54c0.09,0,0.15-0.07,0.15-0.16v-6.63c0-0.09-0.07-0.15-0.15-0.15h-0.4
				c-0.08,0-0.16,0.07-0.16,0.15v6.63c0,0.08,0.07,0.16,0.16,0.16H68.76z"/>
			<path id="XMLID_1005_" class="st0" d="M70.4,32.57c-0.48,0.64-0.72,1.48-0.72,2.52c0,1.01,0.23,1.85,0.71,2.51
				c0.53,0.74,1.31,1.11,2.31,1.11c0.76,0,1.4-0.22,1.91-0.64c0.35-0.32,0.61-0.73,0.76-1.23c0.02-0.07-0.01-0.14-0.07-0.18
				l-0.35-0.2c-0.04-0.02-0.09-0.03-0.13-0.01c-0.05,0.02-0.08,0.06-0.1,0.11c-0.12,0.47-0.36,0.84-0.72,1.11
				c-0.36,0.26-0.78,0.4-1.27,0.4c-0.79,0-1.38-0.29-1.8-0.89c-0.36-0.51-0.54-1.21-0.54-2.07c0-0.85,0.18-1.55,0.54-2.07
				c0.41-0.6,1-0.89,1.8-0.89c0.52,0,0.95,0.14,1.31,0.43c0.28,0.23,0.46,0.49,0.56,0.79c0.02,0.05,0.06,0.08,0.1,0.1
				c0.05,0.02,0.1,0.01,0.14-0.02l0.35-0.23c0.06-0.04,0.09-0.12,0.06-0.19c-0.4-1.02-1.25-1.54-2.51-1.54
				C71.72,31.46,70.93,31.83,70.4,32.57z"/>
			<path id="XMLID_1002_" class="st0" d="M83.33,38.54h0.39c0.09,0,0.16-0.07,0.16-0.16v-9.17c0-0.09-0.07-0.15-0.16-0.15h-0.39
				c-0.08,0-0.16,0.07-0.16,0.15v3.35c-0.49-0.73-1.28-1.1-2.35-1.1c-1.02,0-1.81,0.37-2.36,1.11c-0.48,0.64-0.72,1.48-0.72,2.52
				c0,1.04,0.24,1.9,0.72,2.53c0.54,0.72,1.33,1.08,2.36,1.08c1.06,0,1.85-0.39,2.35-1.15v0.83C83.17,38.47,83.25,38.54,83.33,38.54
				z M80.82,32.13c0.81,0,1.4,0.29,1.8,0.89c0.37,0.52,0.55,1.22,0.55,2.07c0,0.86-0.18,1.55-0.55,2.07c-0.4,0.6-0.99,0.89-1.8,0.89
				c-0.8,0-1.39-0.29-1.81-0.89c-0.36-0.51-0.54-1.21-0.54-2.07c0-0.85,0.19-1.55,0.56-2.07C79.43,32.42,80.02,32.13,80.82,32.13z"
				/>
			<path id="XMLID_999_" class="st0" d="M90.22,38.54h0.4c0.08,0,0.15-0.07,0.15-0.16v-6.63c0-0.09-0.07-0.15-0.15-0.15h-0.4
				c-0.08,0-0.15,0.07-0.15,0.15v0.87c-0.51-0.78-1.29-1.16-2.35-1.16c-1.03,0-1.82,0.37-2.36,1.1c-0.48,0.64-0.72,1.49-0.72,2.53
				c0,1.04,0.24,1.89,0.72,2.54c0.55,0.72,1.35,1.08,2.36,1.08c1.06,0,1.85-0.38,2.35-1.12v0.8C90.07,38.47,90.14,38.54,90.22,38.54
				z M87.72,38.05c-0.81,0-1.4-0.29-1.81-0.89c-0.37-0.51-0.55-1.21-0.55-2.07c0-0.85,0.19-1.55,0.56-2.07
				c0.41-0.6,0.99-0.89,1.8-0.89c0.8,0,1.39,0.29,1.8,0.89c0.36,0.52,0.55,1.22,0.55,2.07c0,0.86-0.19,1.55-0.55,2.07
				C89.11,37.76,88.52,38.05,87.72,38.05z"/>
			<path id="XMLID_996_" class="st0" d="M97.12,38.54h0.39c0.08,0,0.15-0.07,0.15-0.16v-9.17c0-0.09-0.07-0.15-0.15-0.15h-0.39
				c-0.09,0-0.16,0.07-0.16,0.15v3.35c-0.49-0.73-1.28-1.1-2.35-1.1c-1.02,0-1.81,0.37-2.36,1.11c-0.48,0.64-0.72,1.48-0.72,2.52
				c0,1.04,0.25,1.9,0.72,2.53c0.54,0.72,1.34,1.08,2.36,1.08c1.05,0,1.84-0.39,2.35-1.15v0.83C96.96,38.47,97.03,38.54,97.12,38.54
				z M94.62,32.13c0.8,0,1.39,0.29,1.8,0.89c0.37,0.52,0.55,1.22,0.55,2.07c0,0.86-0.18,1.55-0.55,2.07c-0.4,0.6-0.99,0.89-1.8,0.89
				c-0.81,0-1.4-0.29-1.81-0.89c-0.36-0.51-0.55-1.21-0.55-2.07c0-0.85,0.19-1.55,0.56-2.07C93.22,32.42,93.82,32.13,94.62,32.13z"
				/>
			<path id="XMLID_993_" class="st0" d="M87.85,18.52c0.44,0,0.83-0.13,1.14-0.38c0.25-0.19,0.43-0.45,0.54-0.75
				c0.03-0.07,0-0.15-0.07-0.19l-0.2-0.11c-0.04-0.02-0.09-0.02-0.13-0.01c-0.04,0.02-0.07,0.05-0.09,0.09
				c-0.21,0.55-0.6,0.82-1.19,0.82c-0.42,0-0.74-0.17-0.98-0.51c-0.2-0.28-0.31-0.64-0.32-1.07h3.01c0.09,0,0.16-0.07,0.16-0.16
				v-0.15c0-0.62-0.15-1.12-0.44-1.5c-0.33-0.43-0.81-0.65-1.42-0.65c-0.63,0-1.12,0.25-1.45,0.73c-0.28,0.4-0.43,0.92-0.43,1.56
				c0,0.63,0.15,1.16,0.43,1.57C86.73,18.28,87.22,18.52,87.85,18.52z M88.83,14.95c0.17,0.25,0.28,0.56,0.3,0.93h-2.56
				c0.05-0.38,0.17-0.69,0.35-0.93c0.24-0.3,0.56-0.45,0.98-0.45C88.3,14.49,88.6,14.64,88.83,14.95z"/>
			<path id="XMLID_992_" class="st0" d="M90.17,18.42h0.25c0.08,0,0.16-0.07,0.16-0.16v-2.17c0-0.15,0.01-0.29,0.01-0.4
				c0-0.12,0.01-0.21,0.02-0.28c0.11-0.62,0.49-0.91,1.18-0.91c0.37,0,0.62,0.1,0.77,0.29c0.13,0.18,0.21,0.46,0.21,0.86v2.61
				c0,0.09,0.06,0.16,0.15,0.16h0.25c0.08,0,0.16-0.07,0.16-0.16v-2.69c0-1.05-0.54-1.61-1.55-1.61c-0.51,0-0.92,0.15-1.21,0.43
				V14.2c0-0.09-0.07-0.15-0.16-0.15h-0.25c-0.09,0-0.16,0.07-0.16,0.15v4.06C90.01,18.34,90.08,18.42,90.17,18.42z"/>
			<path id="XMLID_991_" class="st0" d="M102.21,29.54c0.27,0.21,0.62,0.32,1.04,0.32c0.36,0,0.68-0.06,0.95-0.19
				c0.44-0.22,0.73-0.57,0.83-1.04c0.02-0.11,0.04-0.21,0.06-0.31c0.01-0.09,0.02-0.18,0.02-0.28v-4.05c0-0.09-0.06-0.16-0.15-0.16
				h-0.25c-0.08,0-0.15,0.07-0.15,0.16v2.17c0,0.15-0.01,0.3-0.01,0.41c-0.01,0.11-0.02,0.21-0.03,0.27
				c-0.11,0.62-0.48,0.91-1.18,0.91c-0.37,0-0.63-0.1-0.77-0.29c-0.13-0.17-0.2-0.46-0.2-0.86v-2.61c0-0.09-0.07-0.16-0.16-0.16
				h-0.25c-0.09,0-0.15,0.07-0.15,0.16v2.69c0,1.05,0.53,1.61,1.54,1.61c0.52,0,0.92-0.14,1.21-0.43V28c0,0.18-0.01,0.31-0.02,0.4
				c-0.01,0.07-0.02,0.13-0.05,0.18c-0.02,0.06-0.04,0.11-0.06,0.16c-0.21,0.4-0.57,0.6-1.11,0.6c-0.3,0-0.54-0.07-0.73-0.2
				c-0.2-0.13-0.3-0.34-0.31-0.61c-0.01-0.08-0.08-0.15-0.16-0.15h-0.21c-0.04,0-0.08,0.02-0.11,0.05
				c-0.03,0.03-0.05,0.07-0.05,0.11C101.75,28.96,101.9,29.3,102.21,29.54z"/>
			<path id="XMLID_990_" class="st0" d="M76.8,38.54c0.09,0,0.16-0.07,0.16-0.16v-6.63c0-0.09-0.07-0.15-0.16-0.15h-0.39
				c-0.09,0-0.16,0.07-0.16,0.15v6.63c0,0.08,0.07,0.16,0.16,0.16H76.8z"/>
		</g>
		<g id="XMLID_985_">
			<path id="XMLID_988_" class="st0" d="M54.45,9.9c0,0.47-0.38,0.85-0.86,0.85c-0.47,0-0.85-0.38-0.85-0.85
				c0-0.47,0.38-0.85,0.85-0.85C54.07,9.05,54.45,9.43,54.45,9.9z"/>
			<path id="XMLID_987_" class="st0" d="M77.46,30.17c0,0.47-0.38,0.85-0.85,0.85c-0.47,0-0.85-0.38-0.85-0.85
				c0-0.47,0.38-0.86,0.85-0.86C77.07,29.31,77.46,29.69,77.46,30.17z"/>
			<path id="XMLID_986_" class="st0" d="M69.41,30.17c0,0.47-0.38,0.85-0.85,0.85c-0.47,0-0.85-0.38-0.85-0.85
				c0-0.47,0.38-0.86,0.85-0.86C69.03,29.31,69.41,29.69,69.41,30.17z"/>
		</g>
	</g>
	<g id="XMLID_977_">
		<g id="XMLID_982_">
			<path id="XMLID_983_" class="st0" d="M12.66,14.99c-7.8-3.18-5.4-6.93-5.4-6.93s-4.57,4.25-0.37,13.37
				c2.92,6.34,7.63,6.37,10.23,5.79c-0.03-1.81,0.39-2.85-1.56-6.98c-1.37-2.9-5.83-5.63-5.83-5.63c7.04,2.81,8.74,10.04,9.09,12.08
				c0.11-0.05,0.17-0.08,0.17-0.08S20.47,18.17,12.66,14.99z"/>
		</g>
		<g id="XMLID_980_">
			<path id="XMLID_981_" class="st0" d="M24.89,5.92c0,0,2.24,1.82-1.92,5.39c-4.17,3.58-1.53,8.46-1.53,8.46s0.04,0,0.12,0.01
				c-0.2-1.32-0.63-6.13,3.14-9.33c0,0-2.19,2.62-2.46,4.68c-0.36,2.95,0.11,3.51,0.46,4.63c1.72-0.19,4.62-1.18,5.13-5.69
				C28.58,7.58,24.89,5.92,24.89,5.92z"/>
		</g>
		<g id="XMLID_978_">
			<path id="XMLID_979_" class="st0" d="M36.62,10.71c0,0,3.69,5.79-8.33,10.67c-12.02,4.89-9.73,17.88-9.73,17.88
				s0.09,0.05,0.26,0.12c0.53-3.15,3.16-14.27,14-18.6c0,0-6.88,4.22-8.98,8.67c-3.02,6.37-2.37,7.97-2.4,10.76
				c0.92,0.2,2.01,0.36,3.19,0.36c4,0,9.1-1.75,12.57-9.28C43.66,17.24,36.62,10.71,36.62,10.71z"/>
		</g>
	</g>
</g>
</svg>
